<mxfile host="65bd71144e">
    <diagram id="Xy2SUYQ_U7mBE8fggzEE" name="Page-1">
        <mxGraphModel dx="990" dy="575" grid="1" gridSize="10" guides="1" tooltips="1" connect="1" arrows="1" fold="1" page="1" pageScale="1" pageWidth="827" pageHeight="1169" math="0" shadow="0">
            <root>
                <mxCell id="0"/>
                <mxCell id="1" parent="0"/>
                <mxCell id="183" value="" style="rounded=1;arcSize=10;dashed=1;strokeColor=#F59D56;fillColor=none;gradientColor=none;dashPattern=8 4;strokeWidth=2;fontFamily=Helvetica;fontSize=17;fontColor=#FFFFFF;align=center;verticalAlign=top;" parent="1" vertex="1">
                    <mxGeometry x="270" y="670" width="530" height="470" as="geometry"/>
                </mxCell>
                <mxCell id="57" value="" style="rounded=1;arcSize=10;dashed=0;fillColor=none;gradientColor=none;strokeWidth=2;fontFamily=Helvetica;fontSize=15;align=center;verticalAlign=top;" parent="1" vertex="1">
                    <mxGeometry x="530" y="30" width="190" height="290" as="geometry"/>
                </mxCell>
                <mxCell id="14" value="MongoDB" style="dashed=0;html=1;shape=mxgraph.aws3.instance;dashed=0;strokeColor=#001DBC;fontColor=#ffffff;fontStyle=1;fontFamily=Helvetica;verticalAlign=top;fontSize=15;fillColor=#2E73B8;" parent="1" vertex="1">
                    <mxGeometry x="574.63" y="67" width="75.25" height="60" as="geometry"/>
                </mxCell>
                <mxCell id="51" value="" style="rounded=1;arcSize=10;dashed=0;fillColor=none;gradientColor=none;strokeWidth=2;fontFamily=Helvetica;fontSize=15;align=center;verticalAlign=top;" parent="1" vertex="1">
                    <mxGeometry x="20" y="30" width="210" height="290" as="geometry"/>
                </mxCell>
                <mxCell id="52" value="Base A&lt;br&gt;Dados de pessoas" style="dashed=0;html=1;shape=mxgraph.aws3.instance;fillColor=#F58536;gradientColor=none;dashed=0;fontFamily=Helvetica;fontSize=15;align=center;verticalAlign=top;" parent="1" vertex="1">
                    <mxGeometry x="40" y="10" width="150" height="50" as="geometry"/>
                </mxCell>
                <mxCell id="53" value="" style="outlineConnect=0;dashed=0;verticalLabelPosition=bottom;verticalAlign=top;align=center;html=1;shape=mxgraph.aws3.mysql_db_instance_2;fillColor=#2E73B8;gradientColor=none;fontFamily=Helvetica;fontSize=15;" parent="1" vertex="1">
                    <mxGeometry x="40" y="70" width="60" height="63" as="geometry"/>
                </mxCell>
                <mxCell id="54" value="" style="rounded=1;arcSize=10;dashed=0;fillColor=none;gradientColor=none;strokeWidth=2;fontFamily=Helvetica;fontSize=15;align=center;verticalAlign=top;" parent="1" vertex="1">
                    <mxGeometry x="280" y="30" width="210" height="290" as="geometry"/>
                </mxCell>
                <mxCell id="55" value="Base B&lt;br&gt;Renda e Bens" style="dashed=0;html=1;shape=mxgraph.aws3.instance;fillColor=#F58536;gradientColor=none;dashed=0;fontFamily=Helvetica;fontSize=15;align=center;verticalAlign=top;" parent="1" vertex="1">
                    <mxGeometry x="290" y="10" width="120" height="50" as="geometry"/>
                </mxCell>
                <mxCell id="56" value="" style="outlineConnect=0;dashed=0;verticalLabelPosition=bottom;verticalAlign=top;align=center;html=1;shape=mxgraph.aws3.mysql_db_instance_2;fillColor=#2E73B8;gradientColor=none;fontFamily=Helvetica;fontSize=15;" parent="1" vertex="1">
                    <mxGeometry x="330" y="67" width="60" height="63" as="geometry"/>
                </mxCell>
                <mxCell id="58" value="Base C&lt;br&gt;Eventos/CPF" style="dashed=0;html=1;shape=mxgraph.aws3.instance;fillColor=#F58536;gradientColor=none;dashed=0;fontFamily=Helvetica;fontSize=15;align=center;verticalAlign=top;" parent="1" vertex="1">
                    <mxGeometry x="544.75" y="10" width="115.25" height="50" as="geometry"/>
                </mxCell>
                <mxCell id="71" value="" style="group;fontColor=#FFFF00;" parent="1" vertex="1" connectable="0">
                    <mxGeometry x="30" y="160" width="190" height="80" as="geometry"/>
                </mxCell>
                <mxCell id="63" value="" style="rounded=1;arcSize=10;dashed=1;strokeColor=#ff0000;fillColor=none;gradientColor=none;dashPattern=8 4;strokeWidth=2;fontFamily=Helvetica;fontSize=15;align=center;verticalAlign=top;" parent="71" vertex="1">
                    <mxGeometry y="20" width="190" height="60" as="geometry"/>
                </mxCell>
                <mxCell id="60" value="API" style="dashed=0;html=1;shape=mxgraph.aws3.instance;gradientColor=none;dashed=0;fontFamily=Helvetica;fontSize=15;align=center;verticalAlign=top;fillColor=#000000;fontColor=#FFFF00;" parent="71" vertex="1">
                    <mxGeometry x="30" y="40" width="90" height="30" as="geometry"/>
                </mxCell>
                <mxCell id="64" value="crypt/decrypt" style="dashed=0;html=1;shape=mxgraph.aws3.instance;gradientColor=#7ea6e0;dashed=0;fontFamily=Helvetica;fontSize=15;align=center;verticalAlign=top;fillColor=#dae8fc;strokeColor=#6c8ebf;fontColor=#000000;" parent="71" vertex="1">
                    <mxGeometry x="10" width="110" height="30" as="geometry"/>
                </mxCell>
                <mxCell id="65" value="" style="outlineConnect=0;dashed=0;verticalLabelPosition=bottom;verticalAlign=top;align=center;html=1;shape=mxgraph.aws3.add_on;fillColor=#759C3E;gradientColor=none;fontFamily=Helvetica;fontSize=15;" parent="71" vertex="1">
                    <mxGeometry x="110" y="5.75" width="29.5" height="18.5" as="geometry"/>
                </mxCell>
                <mxCell id="72" value="" style="shape=doubleArrow;direction=south;whiteSpace=wrap;html=1;fontFamily=Helvetica;fontSize=15;fillColor=#ffcd28;align=center;verticalAlign=top;gradientColor=#ffa500;strokeColor=#d79b00;" parent="1" vertex="1">
                    <mxGeometry x="60" y="133" width="20" height="27" as="geometry"/>
                </mxCell>
                <mxCell id="190" style="edgeStyle=orthogonalEdgeStyle;rounded=0;orthogonalLoop=1;jettySize=auto;html=1;exitX=0.5;exitY=0;exitDx=0;exitDy=0;exitPerimeter=0;entryX=0.5;entryY=1;entryDx=0;entryDy=0;entryPerimeter=0;fontFamily=Helvetica;fontSize=17;fontColor=#FFFF00;" parent="1" source="81" target="56" edge="1">
                    <mxGeometry relative="1" as="geometry"/>
                </mxCell>
                <mxCell id="81" value="API" style="dashed=0;html=1;shape=mxgraph.aws3.instance;gradientColor=none;dashed=0;fontFamily=Helvetica;fontSize=15;align=center;verticalAlign=top;fillColor=#000000;fontColor=#FFFF00;" parent="1" vertex="1">
                    <mxGeometry x="314.75" y="160" width="90" height="30" as="geometry"/>
                </mxCell>
                <mxCell id="189" style="edgeStyle=orthogonalEdgeStyle;rounded=0;orthogonalLoop=1;jettySize=auto;html=1;exitX=0.5;exitY=0;exitDx=0;exitDy=0;exitPerimeter=0;fontFamily=Helvetica;fontSize=17;fontColor=#FFFF00;" parent="1" source="84" target="14" edge="1">
                    <mxGeometry relative="1" as="geometry"/>
                </mxCell>
                <mxCell id="84" value="API" style="dashed=0;html=1;shape=mxgraph.aws3.instance;gradientColor=none;dashed=0;fontFamily=Helvetica;fontSize=15;align=center;verticalAlign=top;fillColor=#000000;fontColor=#FFFF00;" parent="1" vertex="1">
                    <mxGeometry x="567.25" y="160" width="90" height="30" as="geometry"/>
                </mxCell>
                <mxCell id="86" value="Redis (cache)" style="dashed=0;html=1;shape=mxgraph.aws3.instance;dashed=0;fontFamily=Helvetica;fontSize=15;align=center;verticalAlign=top;strokeColor=#82b366;fillColor=#33FF33;fontColor=#000000;" parent="1" vertex="1">
                    <mxGeometry x="40" y="280" width="170" height="30" as="geometry"/>
                </mxCell>
                <mxCell id="87" value="" style="shape=doubleArrow;direction=south;whiteSpace=wrap;html=1;fontFamily=Helvetica;fontSize=15;fontColor=#000000;gradientColor=none;align=center;verticalAlign=top;fillColor=#FFE6CC;" parent="1" vertex="1">
                    <mxGeometry x="95" y="240" width="25" height="40" as="geometry"/>
                </mxCell>
                <mxCell id="88" value="Redis (cache)" style="dashed=0;html=1;shape=mxgraph.aws3.instance;dashed=0;fontFamily=Helvetica;fontSize=15;align=center;verticalAlign=top;strokeColor=#82b366;fillColor=#33FF33;fontColor=#000000;" parent="1" vertex="1">
                    <mxGeometry x="290" y="230" width="170" height="30" as="geometry"/>
                </mxCell>
                <mxCell id="89" value="" style="shape=doubleArrow;direction=south;whiteSpace=wrap;html=1;fontFamily=Helvetica;fontSize=15;fontColor=#000000;gradientColor=none;align=center;verticalAlign=top;fillColor=#FFE6CC;" parent="1" vertex="1">
                    <mxGeometry x="345" y="190" width="25" height="40" as="geometry"/>
                </mxCell>
                <mxCell id="90" value="Redis (cache)" style="dashed=0;html=1;shape=mxgraph.aws3.instance;dashed=0;fontFamily=Helvetica;fontSize=15;align=center;verticalAlign=top;strokeColor=#82b366;fillColor=#33FF33;fontColor=#000000;" parent="1" vertex="1">
                    <mxGeometry x="540.5" y="230" width="169" height="30" as="geometry"/>
                </mxCell>
                <mxCell id="91" value="" style="shape=doubleArrow;direction=south;whiteSpace=wrap;html=1;fontFamily=Helvetica;fontSize=15;fontColor=#000000;gradientColor=none;align=center;verticalAlign=top;fillColor=#FFE6CC;" parent="1" vertex="1">
                    <mxGeometry x="599.75" y="190" width="25" height="40" as="geometry"/>
                </mxCell>
                <mxCell id="92" value="" style="rounded=1;arcSize=10;dashed=0;fillColor=none;gradientColor=none;strokeWidth=2;fontFamily=Helvetica;fontSize=15;align=center;verticalAlign=top;" parent="1" vertex="1">
                    <mxGeometry x="100" y="510" width="720" height="660" as="geometry"/>
                </mxCell>
                <mxCell id="93" value="Aplicação facade" style="dashed=0;html=1;shape=mxgraph.aws3.instance;fillColor=#F58536;gradientColor=none;dashed=0;fontFamily=Helvetica;fontSize=15;align=center;verticalAlign=top;" parent="1" vertex="1">
                    <mxGeometry x="225.25" y="490" width="225.25" height="30" as="geometry"/>
                </mxCell>
                <mxCell id="94" value="" style="shape=flexArrow;endArrow=classic;startArrow=classic;html=1;fontFamily=Helvetica;fontSize=15;fontColor=#000000;entryX=0.611;entryY=1.012;entryDx=0;entryDy=0;entryPerimeter=0;exitX=0.284;exitY=0.06;exitDx=0;exitDy=0;exitPerimeter=0;" parent="1" source="110" target="51" edge="1">
                    <mxGeometry width="100" height="100" relative="1" as="geometry">
                        <mxPoint x="210" y="430" as="sourcePoint"/>
                        <mxPoint x="160" y="330" as="targetPoint"/>
                    </mxGeometry>
                </mxCell>
                <mxCell id="95" value="Consulta UID&lt;br&gt;através do CPF + data nascimento" style="text;html=1;strokeColor=#666666;align=center;verticalAlign=middle;whiteSpace=wrap;rounded=0;fontFamily=Helvetica;fontSize=17;gradientColor=#b3b3b3;fontStyle=1" parent="1" vertex="1">
                    <mxGeometry x="37.5" y="415" width="140" height="80" as="geometry"/>
                </mxCell>
                <mxCell id="99" value="" style="shape=flexArrow;endArrow=classic;startArrow=classic;html=1;fontFamily=Helvetica;fontSize=17;fontColor=#000000;exitX=0.568;exitY=0.047;exitDx=0;exitDy=0;exitPerimeter=0;" parent="1" source="93" edge="1">
                    <mxGeometry width="100" height="100" relative="1" as="geometry">
                        <mxPoint x="360" y="440" as="sourcePoint"/>
                        <mxPoint x="392" y="321" as="targetPoint"/>
                    </mxGeometry>
                </mxCell>
                <mxCell id="100" value="Consulta Score" style="text;html=1;strokeColor=#666666;align=center;verticalAlign=middle;whiteSpace=wrap;rounded=0;fontFamily=Helvetica;fontSize=17;gradientColor=#b3b3b3;fontStyle=1" parent="1" vertex="1">
                    <mxGeometry x="295.25" y="380" width="69.5" height="20" as="geometry"/>
                </mxCell>
                <mxCell id="101" value="" style="shape=flexArrow;endArrow=classic;startArrow=classic;html=1;fontFamily=Helvetica;fontSize=17;fontColor=#000000;exitX=0.859;exitY=-0.033;exitDx=0;exitDy=0;exitPerimeter=0;entryX=0.084;entryY=1.001;entryDx=0;entryDy=0;entryPerimeter=0;" parent="1" source="93" target="57" edge="1">
                    <mxGeometry width="100" height="100" relative="1" as="geometry">
                        <mxPoint x="430" y="460" as="sourcePoint"/>
                        <mxPoint x="530" y="360" as="targetPoint"/>
                    </mxGeometry>
                </mxCell>
                <mxCell id="102" value="Consulta eventos relacionados ao CPF" style="text;html=1;strokeColor=#666666;align=center;verticalAlign=middle;whiteSpace=wrap;rounded=0;fontFamily=Helvetica;fontSize=17;gradientColor=#b3b3b3;fontStyle=1" parent="1" vertex="1">
                    <mxGeometry x="500" y="400" width="160" height="60" as="geometry"/>
                </mxCell>
                <mxCell id="110" value="segurança" style="dashed=0;html=1;shape=mxgraph.aws3.instance;fillColor=#dae8fc;gradientColor=#7ea6e0;dashed=0;fontFamily=Helvetica;fontSize=15;align=center;verticalAlign=top;strokeColor=#6c8ebf;fontColor=#000000;" parent="1" vertex="1">
                    <mxGeometry x="190" y="440" width="110" height="30" as="geometry"/>
                </mxCell>
                <mxCell id="103" value="" style="outlineConnect=0;dashed=0;verticalLabelPosition=bottom;verticalAlign=top;align=center;html=1;shape=mxgraph.aws3.add_on;fillColor=#759C3E;gradientColor=none;fontFamily=Helvetica;fontSize=17;fontColor=#000000;" parent="1" vertex="1">
                    <mxGeometry x="290" y="445.75" width="30" height="18.5" as="geometry"/>
                </mxCell>
                <mxCell id="113" value="" style="endArrow=classic;startArrow=classic;html=1;fontFamily=Helvetica;fontSize=17;fontColor=#000000;" parent="1" edge="1">
                    <mxGeometry width="50" height="50" relative="1" as="geometry">
                        <mxPoint x="230.5" y="490" as="sourcePoint"/>
                        <mxPoint x="210.5" y="470" as="targetPoint"/>
                    </mxGeometry>
                </mxCell>
                <mxCell id="137" style="edgeStyle=orthogonalEdgeStyle;rounded=0;orthogonalLoop=1;jettySize=auto;html=1;exitX=0.5;exitY=1;exitDx=0;exitDy=0;entryX=0.5;entryY=0;entryDx=0;entryDy=0;fontFamily=Helvetica;fontSize=17;fontColor=#FFFFFF;" parent="1" source="127" target="129" edge="1">
                    <mxGeometry relative="1" as="geometry"/>
                </mxCell>
                <mxCell id="127" value="" style="rounded=1;whiteSpace=wrap;html=1;fontFamily=Helvetica;fontSize=17;fontColor=#FFFFFF;gradientColor=none;align=center;verticalAlign=top;fillColor=none;" parent="1" vertex="1">
                    <mxGeometry x="140" y="540" width="110" height="30" as="geometry"/>
                </mxCell>
                <mxCell id="128" value="Início" style="text;html=1;strokeColor=none;fillColor=none;align=center;verticalAlign=middle;whiteSpace=wrap;rounded=0;fontFamily=Helvetica;fontSize=17;fontColor=#000000;" parent="1" vertex="1">
                    <mxGeometry x="175" y="545" width="40" height="20" as="geometry"/>
                </mxCell>
                <mxCell id="136" style="edgeStyle=orthogonalEdgeStyle;rounded=0;orthogonalLoop=1;jettySize=auto;html=1;exitX=1;exitY=0.5;exitDx=0;exitDy=0;fontFamily=Helvetica;fontSize=17;fontColor=#FFFFFF;" parent="1" source="129" target="135" edge="1">
                    <mxGeometry relative="1" as="geometry"/>
                </mxCell>
                <mxCell id="155" style="edgeStyle=orthogonalEdgeStyle;rounded=0;orthogonalLoop=1;jettySize=auto;html=1;exitX=0.5;exitY=1;exitDx=0;exitDy=0;entryX=0.5;entryY=0;entryDx=0;entryDy=0;fontFamily=Helvetica;fontSize=17;fontColor=#FFFFFF;" parent="1" source="129" target="154" edge="1">
                    <mxGeometry relative="1" as="geometry"/>
                </mxCell>
                <mxCell id="129" value="" style="shape=process;whiteSpace=wrap;html=1;backgroundOutline=1;fontFamily=Helvetica;fontSize=17;fontColor=#FFFFFF;fillColor=none;gradientColor=none;align=center;verticalAlign=top;" parent="1" vertex="1">
                    <mxGeometry x="135" y="600" width="120" height="60" as="geometry"/>
                </mxCell>
                <mxCell id="130" value="Cliente faz login" style="text;html=1;strokeColor=none;fillColor=none;align=center;verticalAlign=middle;whiteSpace=wrap;rounded=0;fontFamily=Helvetica;fontSize=17;fontColor=#000000;" parent="1" vertex="1">
                    <mxGeometry x="160" y="620" width="55" height="20" as="geometry"/>
                </mxCell>
                <mxCell id="133" value="Serviço Autenticação" style="text;html=1;strokeColor=none;fillColor=none;align=center;verticalAlign=middle;whiteSpace=wrap;rounded=0;fontFamily=Helvetica;fontSize=17;labelBackgroundColor=none;fontColor=#000000;" parent="1" vertex="1">
                    <mxGeometry x="404.75" y="580" width="40" height="20" as="geometry"/>
                </mxCell>
                <mxCell id="135" value="" style="ellipse;whiteSpace=wrap;html=1;fontFamily=Helvetica;fontSize=17;fontColor=#FFFFFF;fillColor=none;gradientColor=none;align=center;verticalAlign=top;labelBackgroundColor=none;" parent="1" vertex="1">
                    <mxGeometry x="370" y="550" width="120" height="80" as="geometry"/>
                </mxCell>
                <mxCell id="139" value="Informa CPF/Data de nascimento" style="text;html=1;strokeColor=none;fillColor=none;align=center;verticalAlign=middle;whiteSpace=wrap;rounded=0;fontFamily=Helvetica;fontSize=17;fontColor=#000000;" parent="1" vertex="1">
                    <mxGeometry x="180" y="710" width="40" height="20" as="geometry"/>
                </mxCell>
                <mxCell id="150" style="edgeStyle=orthogonalEdgeStyle;rounded=0;orthogonalLoop=1;jettySize=auto;html=1;exitX=1;exitY=0.5;exitDx=0;exitDy=0;entryX=0;entryY=0.5;entryDx=0;entryDy=0;fontFamily=Helvetica;fontSize=17;fontColor=#FFFFFF;" parent="1" source="141" target="148" edge="1">
                    <mxGeometry relative="1" as="geometry"/>
                </mxCell>
                <mxCell id="141" value="" style="shape=step;perimeter=stepPerimeter;whiteSpace=wrap;html=1;fixedSize=1;fontFamily=Helvetica;fontSize=17;fontColor=#FFFFFF;fillColor=none;gradientColor=none;align=center;verticalAlign=top;" parent="1" vertex="1">
                    <mxGeometry x="320" y="680" width="170" height="100" as="geometry"/>
                </mxCell>
                <mxCell id="142" value="Consulta Base A através de chave assimétrica" style="text;html=1;strokeColor=none;fillColor=none;align=center;verticalAlign=middle;whiteSpace=wrap;rounded=0;fontFamily=Helvetica;fontSize=17;fontColor=#000000;" parent="1" vertex="1">
                    <mxGeometry x="390" y="720" width="40" height="20" as="geometry"/>
                </mxCell>
                <mxCell id="169" style="edgeStyle=orthogonalEdgeStyle;rounded=0;orthogonalLoop=1;jettySize=auto;html=1;exitX=0.5;exitY=1;exitDx=0;exitDy=0;entryX=0.5;entryY=0;entryDx=0;entryDy=0;fontFamily=Helvetica;fontSize=17;fontColor=#FFFFFF;" parent="1" source="148" target="167" edge="1">
                    <mxGeometry relative="1" as="geometry">
                        <Array as="points">
                            <mxPoint x="565" y="790"/>
                            <mxPoint x="409" y="790"/>
                        </Array>
                    </mxGeometry>
                </mxCell>
                <mxCell id="181" value="Sim" style="edgeLabel;html=1;align=center;verticalAlign=middle;resizable=0;points=[];fontSize=17;fontFamily=Helvetica;fontColor=#000000;" parent="169" vertex="1" connectable="0">
                    <mxGeometry x="-0.5562" y="2" relative="1" as="geometry">
                        <mxPoint as="offset"/>
                    </mxGeometry>
                </mxCell>
                <mxCell id="192" style="edgeStyle=orthogonalEdgeStyle;rounded=0;orthogonalLoop=1;jettySize=auto;html=1;exitX=1;exitY=0.5;exitDx=0;exitDy=0;entryX=0;entryY=0.5;entryDx=0;entryDy=0;" parent="1" source="148" target="153" edge="1">
                    <mxGeometry relative="1" as="geometry"/>
                </mxCell>
                <mxCell id="148" value="" style="rhombus;whiteSpace=wrap;html=1;fontFamily=Helvetica;fontSize=17;fontColor=#FFFFFF;fillColor=none;gradientColor=none;align=center;verticalAlign=top;" parent="1" vertex="1">
                    <mxGeometry x="510" y="690" width="110" height="80" as="geometry"/>
                </mxCell>
                <mxCell id="149" value="encontrou?" style="text;html=1;strokeColor=none;fillColor=none;align=center;verticalAlign=middle;whiteSpace=wrap;rounded=0;fontFamily=Helvetica;fontSize=17;fontColor=#000000;" parent="1" vertex="1">
                    <mxGeometry x="544.75" y="720" width="40" height="20" as="geometry"/>
                </mxCell>
                <mxCell id="151" value="Não" style="text;html=1;strokeColor=none;fillColor=none;align=center;verticalAlign=middle;whiteSpace=wrap;rounded=0;fontFamily=Helvetica;fontSize=17;fontColor=#000000;" parent="1" vertex="1">
                    <mxGeometry x="620" y="700" width="40" height="20" as="geometry"/>
                </mxCell>
                <mxCell id="194" style="edgeStyle=orthogonalEdgeStyle;rounded=0;orthogonalLoop=1;jettySize=auto;html=1;exitX=0.5;exitY=1;exitDx=0;exitDy=0;entryX=0.5;entryY=0;entryDx=0;entryDy=0;" parent="1" source="153" target="160" edge="1">
                    <mxGeometry relative="1" as="geometry"/>
                </mxCell>
                <mxCell id="153" value="&quot;CPF Inexistente&quot;" style="shape=process;whiteSpace=wrap;html=1;backgroundOutline=1;fontFamily=Helvetica;fontSize=17;fillColor=none;gradientColor=none;align=center;verticalAlign=top;fontColor=#000000;" parent="1" vertex="1">
                    <mxGeometry x="670" y="700" width="120" height="60" as="geometry"/>
                </mxCell>
                <mxCell id="156" style="edgeStyle=orthogonalEdgeStyle;rounded=0;orthogonalLoop=1;jettySize=auto;html=1;exitX=1;exitY=0.5;exitDx=0;exitDy=0;entryX=0;entryY=0.5;entryDx=0;entryDy=0;fontFamily=Helvetica;fontSize=17;fontColor=#FFFFFF;" parent="1" source="154" target="141" edge="1">
                    <mxGeometry relative="1" as="geometry"/>
                </mxCell>
                <mxCell id="154" value="" style="shape=process;whiteSpace=wrap;html=1;backgroundOutline=1;fontFamily=Helvetica;fontSize=17;fontColor=#FFFFFF;fillColor=none;gradientColor=none;align=center;verticalAlign=top;" parent="1" vertex="1">
                    <mxGeometry x="130" y="680" width="130" height="80" as="geometry"/>
                </mxCell>
                <mxCell id="160" value="Fim" style="ellipse;whiteSpace=wrap;html=1;aspect=fixed;fontFamily=Helvetica;fontSize=17;fillColor=none;gradientColor=none;align=center;verticalAlign=top;fontColor=#000000;" parent="1" vertex="1">
                    <mxGeometry x="709.5" y="805" width="40" height="40" as="geometry"/>
                </mxCell>
                <mxCell id="182" style="edgeStyle=orthogonalEdgeStyle;rounded=0;orthogonalLoop=1;jettySize=auto;html=1;exitX=0.5;exitY=1;exitDx=0;exitDy=0;entryX=0.5;entryY=0;entryDx=0;entryDy=0;fontFamily=Helvetica;fontSize=17;fontColor=#FFFFFF;" parent="1" source="167" target="168" edge="1">
                    <mxGeometry relative="1" as="geometry"/>
                </mxCell>
                <mxCell id="167" value="Consulta base B através UI" style="shape=step;perimeter=stepPerimeter;whiteSpace=wrap;html=1;fixedSize=1;fontFamily=Helvetica;fontSize=17;fillColor=none;gradientColor=none;align=center;verticalAlign=top;fontColor=#000000;" parent="1" vertex="1">
                    <mxGeometry x="320" y="805" width="177.5" height="50" as="geometry"/>
                </mxCell>
                <mxCell id="175" style="edgeStyle=orthogonalEdgeStyle;rounded=0;orthogonalLoop=1;jettySize=auto;html=1;exitX=0.5;exitY=1;exitDx=0;exitDy=0;entryX=0.5;entryY=0;entryDx=0;entryDy=0;fontFamily=Helvetica;fontSize=17;fontColor=#FFFFFF;" parent="1" source="168" target="172" edge="1">
                    <mxGeometry relative="1" as="geometry"/>
                </mxCell>
                <mxCell id="168" value="Consulta da Base C" style="shape=step;perimeter=stepPerimeter;whiteSpace=wrap;html=1;fixedSize=1;fontFamily=Helvetica;fontSize=17;fillColor=none;gradientColor=none;align=center;verticalAlign=top;fontColor=#000000;" parent="1" vertex="1">
                    <mxGeometry x="284" y="880" width="260" height="50" as="geometry"/>
                </mxCell>
                <mxCell id="179" style="edgeStyle=orthogonalEdgeStyle;rounded=0;orthogonalLoop=1;jettySize=auto;html=1;exitX=0.5;exitY=1;exitDx=0;exitDy=0;fontFamily=Helvetica;fontSize=17;fontColor=#FFFFFF;" parent="1" source="172" target="176" edge="1">
                    <mxGeometry relative="1" as="geometry"/>
                </mxCell>
                <mxCell id="172" value="envia para o serviço calculador de score" style="shape=step;perimeter=stepPerimeter;whiteSpace=wrap;html=1;fixedSize=1;fontFamily=Helvetica;fontSize=17;fillColor=none;gradientColor=none;align=center;verticalAlign=top;fontColor=#000000;" parent="1" vertex="1">
                    <mxGeometry x="270" y="950" width="300" height="50" as="geometry"/>
                </mxCell>
                <mxCell id="180" style="edgeStyle=orthogonalEdgeStyle;rounded=0;orthogonalLoop=1;jettySize=auto;html=1;exitX=0.5;exitY=1;exitDx=0;exitDy=0;fontFamily=Helvetica;fontSize=17;fontColor=#FFFFFF;" parent="1" source="176" target="177" edge="1">
                    <mxGeometry relative="1" as="geometry"/>
                </mxCell>
                <mxCell id="176" value="retorna consulta" style="shape=process;whiteSpace=wrap;html=1;backgroundOutline=1;fontFamily=Helvetica;fontSize=17;fillColor=none;gradientColor=none;align=center;verticalAlign=top;fontColor=#000000;" parent="1" vertex="1">
                    <mxGeometry x="360" y="1020" width="120" height="60" as="geometry"/>
                </mxCell>
                <mxCell id="177" value="Fim" style="rounded=1;whiteSpace=wrap;html=1;fontFamily=Helvetica;fontSize=17;fillColor=none;gradientColor=none;align=center;verticalAlign=top;fontColor=#000000;" parent="1" vertex="1">
                    <mxGeometry x="350" y="1100" width="140" height="30" as="geometry"/>
                </mxCell>
                <mxCell id="185" style="edgeStyle=orthogonalEdgeStyle;rounded=0;orthogonalLoop=1;jettySize=auto;html=1;exitX=0.5;exitY=1;exitDx=0;exitDy=0;fontFamily=Helvetica;fontSize=17;fontColor=#000000;" parent="1" source="154" target="154" edge="1">
                    <mxGeometry relative="1" as="geometry"/>
                </mxCell>
                <mxCell id="195" value="" style="shape=image;verticalLabelPosition=bottom;labelBackgroundColor=#ffffff;verticalAlign=top;aspect=fixed;imageAspect=0;image=data:image/png,iVBORw0KGgoAAAANSUhEUgAAAM4AAACdCAYAAAD8BUedAAAAAXNSR0IArs4c6QAAAARnQU1BAACxjwv8YQUAAAAJcEhZcwAAEnQAABJ0Ad5mH3gAADi3SURBVHhe7X0JfBzFlf7XPfeMZqTRLdmyje8LHxhjMGADgYCTsCGBkLDZzbIJbCCwuQNJSDbXLn9CyOY+ISwhhDsXRwIJBDAx2AZ8YfCBD1mSdc5IGs3Z09f/veoZaSxLtiRsSzD9/VSame7q6urq99V7VfWqSjIJsGHDxqgg5z5t2LAxCtjEsWFjDLCJY8PGGGATx4aNMcAmjg0bY4BNHBs2xgCbODZsjAE2cWzYGANs4tiwMQbYxLFhYwywiWPDxhhgE8eGjTHAJo4NG2OATRwbNsYAmzg2bIwBNnFs2BgD7IlsJwQ6Mn196Iz2IOKrREwxEU1m0JXWEDM86EkkkcgoSFIY/m2YkCUZbpcTbqcDPo8b4RI/wmYK1UEfqkq8KIOCSimNmvIwZH8JXSNZl9o45rCJc8ygormpFfvlcrwWzWBbSxSNcR2NaQmtigOK5CAxJkHWMtANLnKJqEBkMA1IkkSkoLMUjgy6gi7lq/m1cTBkSpcOcGoOhwOGwy34EjAymFLiwhRHCjNrynBypQ9za0owE32orKmzkrMxZtjEGRMM7GlqxytpP57b24mXYyZe7zWhyU4gS8SgEnWSEex2yGQLmyzHQrAPJwYX/VBk4diHwoo11Ks6NA0Rg0mVS0M3JWR1nXSeBAff3+mB32lgcYmB5dUerJ5ahlOCBuqqK/hKGyOETZwRor0rgr+0GfjT3l48HzGR0iVoqgIXCaPbQRqD4rBcFtKAC5aVi0GfqqbTd9IQDg8dp08+4fLRMTorNBCF/MWpGDxOIiEd4zSzxEROA76QIIVImCPLRAaZ7pxNQaJPzoOsZ8UxF5E2n598sgxxJ0qMsg9FMyhd0nQuN6pdJs6rlvG++dV4V5UOd6jcusDGkLCJcwR0dHXh/xpl3PV6FPszMgwlA59TAv0dQhIuQZ0+s6oG3emmWl6GTtrHraUxNehEnUvHpLIA6itCaECC2iMeVASoTZJsR9DnRSjgQ4A+/dRu8biJMGR+HSruDJZ2AwrdI61kkUhn0JdKI5ZIoztQi854Gp3UZmrWfWhqj6JTMdCU0NGuOmE6XHAaWciGASfl1O1ywMFvPXcLzj8Tkwmq8Q8i9KmlOq5eWouPNFB2AqVWRBv9sIlzGAw8ua8X39rcg42dVB9n0/C5SdBE7W9JGisIFmBVdlFww2cqWFQmY15NKZaFgQUhGXMp1NVUi/iWWPK1g8lwvFBwP0Mns/IgdmR92N5rYFN7Eq/3KNgRp9MOJ1y6Ajc1ktiszOeORUKjX2lVh+z249LpHnx9SQizqm0C5WETpwB/3RvFNWujVFNr8DsMMsOogIgsXEAq1dYZsm9UhxeTPSrOmhTEBZO8ODOUwZypkylGvhhPFDnGCiYVGXVEqPV7DuL5uB/PHIhhbaeCpOGCh7SkjzVS7jHYvFRIE2UkF86tceCu8+sxmbRnscMmDkEjE+zcR9uwrjWFEFlK3LAXx0m1pMgGU8n0WjXJg8tmluHSOgP11VV0lottopNkpLCeZWtjK+5vc+FPu6LYkXTAq1valouDYzCBkqYLn1wQwA/OraEjLgrFiaInzo72Xpz6SJRMshS8Ocao1Jbo052YVWLiuqVV+I/ZfvgCJ66W7eqJ4eGDBv68vRW7NB96s6wlgBLJwOIy4IPUgP/QDA8x3CeOHw/s7+rBT3cquH17FHEVCBFHhBYicemj/JxUVYpdH6on5VWc5Clq4uzvjmP6b5tR5tDhoAa5QfVqT8bEqbU+fO+MMM6aemJ7lvSsgg/8pRV/aEySupOxerITFzQEUO4ykFA0tBgB/G1PO3ZEHVTZm/jx2eW4bhkJ7/GEqeJXr/bii+ujiGVUhNxW5ZLRDIR9LjR/bDb9yqnoIkIRE0dHxS/fgK5pZJrJog2jkUn24EX1ePcMqtZPMCJci9+xiwiSxYqGMjy5phqlgaE1yvbmDnxnh4ZfrK6C1+POHT3e0HDTP9px88ZelPt5KFdCQtVwPhH7sUtm5OIUD4qWOHeQCfIfTx1EudcJnRrKLiJP01WzyVw7caZHPJGARsQNuyVMu78DHYkMVtYH8PTFlUirErJUq+dfjk7EDpeGIDt4fGf8sCGSxhn37qc8WwO70awDTR+sRENNpRWhSFC0xHnHb1/FS73W6H63zi+/BpMrw7mzJwYff7oF6zo1MQbUFInDTW2sRZVeJGQPdJ2P5kBvKAYn/rDCgSXTanMHxw8/39SGT73QjSBxmNs7t5xRgc8uP84m4wRD0RLnlJ+vx34zKBq8GZPMjmvn586cQKgKNQ9MPLm9Ge9ZZ6LCI6H9I7VIplTiykCPHX9j7RMOl1L88dU4zOKe7l5U3NeBcmobJlQTX1rkx9dWT8+dLw4UX6suh5pwEJpu9Val6eWva4yI7ycSn1jbiSUPHMRXd8hwaBmkMwqW/bEH5z0Zw+o/d4uwisLZj3fj1L/EsaU5mruSMG71nYTbdmTgNVXxiz0N6kuLb1ynaDXOo7uj+Kc/t6LCyz4B1njNS++rx8J6Mte4SHJeAscV7DTGdpjkwJkPvIGX2lKYX+XDliumUZVGjX5To3O5URR+SxTP+sLIDWQWaKbjC+u+v3ilFdesI42T65OIqk4k/q0GgdCJ71AZTxStxrl4dgXmh11QqHHOPUTEHyz+XRu+uraZZMSqTS3BPo5gUggyAOsum4K55W5sbUui/M4DeHhHF92f2zn8iihOjjTZZBw/3BLBnLvewMaONF96nGERJprI4D2PN+O6dT2gbBIk9Co6PjPPXXSkYRRxdzS1G9IpVN7VCEnX4HI6SURMJFUDpYEAvrQkiOvmeuHyB63IJ0QLmfjOpii+t6EFbQkHAuVBLHdG4JUM0W3e5anAll7KQzKDJfVufPf0cpw3M+8PdwzR/6wmDnbH8c3NMfxmd4rKKQtfbpA4ntVwapUX666YI34XG4qaOIxkMoFTft+O/T0ZhCznNOHqn9RM+L0+vHeSjKsWlOGsyX6q+L25q1i2Bpw+jwe2NLbh6ZYUdqol6E2kxByfcMCLRd40/ml2uRi5p8xakd8sBlUKejKGPzVl8ZPX+7C+U4VBpGWvcJmi8HN3K8BlM4N46D2TKPZ4d1aMD4qeOBZ03PhcK259NYkA1JzrjUUghaw1g8ylcMCDiyo0XLqgFmeWaiirGDzxi2dksvwdDzLlTcY3b1lbhOdvhflU0dTRi2cjDjz4eidejLmQyKThIabk6hKhjRNkwbrdLvz8jBA+vKi4Z5HaxClAW3cMn1rXjYf2Z+CTVOElnBcvnYpJ5dmUhomAx4vJARnnlGtYPaMGJ3tTmFNLdr5rqJF+Ll7puGuoQ5B/pUPez0SGtOyuHgUvdQPP7evEP+I+9GRUJNMKaRYHnGQa8lRuBk/zTpH2ddLx/5xfgptX1kB2e8S5YoZNnMNgor03gZu3JHH/nl50pYkoRCKPg0iUk0Mxk5M+s4YkPKh54QyPQ8a0oBPznH1Y0lCFedVB1DszaAg4Efa7qKpmUo1EY1hEe3PI8sAP2noSaDN92N+rYGevhi1NHdhhlKEtqSGbzSKj6fBSvh1EFLEiQsHz8ezQFNyYHTBw1eIqfObkIJzuAVO12GET54gw8Zcdbfhts4Gn9najQ3fDB02YL678hBUCFyAXI09w0yQHyawu2gO8Go3b5RKT4Cp9DtQE3ahMdaG+PITqoB9BPYlwsASlfi9KvG743U7IdI3U28oqDh76zr1+TCTJ0GGU14u2Tiqro49ngCYV9CRTiMl+Qfa2njgi3kp0JFXEsjybE1CIIKwl6UWL9GTTyhtrv/wTcP55gFWlnCpEbvYKf+e0EK6e6cHiyWySDjyrDQs2cUYEIoWm4uXmXjzSomBdWxJbozp6dCKGZMJhqGKOv5MkknVKvkD5M1+8opVCpp4hycLsE1qLgklCLQSZYgvxpH9yruuZzSWOY4HNPUOkx0d4rQA+JcvW2gK8EIdMCTHBOD2GaKnl1UgOTG42v4RTq+wm8xOod2lYXOXF+XVuvHuqH3PqbbIcDTZxxgQNqi5hd2sEL7alsCHpxe72GN6IZRExSBhJMN0kvQ5DI+ElMyi/kAYLtpXAiMAvZrTiy8QQhKTvum4IorIW5PYZj1XVObKYXuHDouoQTitJ4/T6IKZWhSHJTO3i7CEbC2ziHBOwtGpUk0voTinYG0liR1cc+1Qv9id0tPZlEM1o6KTPhNMHhadgk5wSn+gFWA1xJkihdhikKIR2yYNfGYs5f+qsnejTQ2l5yNgqk3RUBn0Iu0w0hEswPShjhlfDvLATs2qrxZRw2cUajYONscImznGHbkk9m0fU9tGdHnTH4uhNJBFLq+iTvdROURBXNGRUTWgKRooa9/3coS/c/uFkmGReEvwyrwtlAS9K1ThKgwGEQ9RW8nmE2ejgpaXEKoVMDtZ1No41ipY4d67bgRRcombnArh+5UzrhI2jQstm8L31zaS9uGfRxNLqAM6Zw4OhxYOiJc4Zv96K9T28mKCMrCqj5SN1mHSC5+O8VXHHljZc/XQELjeZnIqBb59diRtWFNd8nKLV4x9bWi+0TdAlk9ljYMWjEcRTmdxZG8Nh48E+XPOPbpT7ZctFye3Gh04qvvGdIiWOiasWlaPU64Fm8EIdMuJpBQ2/PYD7d/KcFx47sXEITAW3bjiIM3/fhJDD8oJIqjounurFlOriWy63qDsHdnenMe83e1Hq5ka3TO13y7lzYdiFm08L48LZLBDFu3aYQDaF+95I4L9eiaEplkGQ/fiINDwwG6CKp/3fTwJ4h4QiQ9H3qr3akcDpVIvy1AKvk3uhLDeatG7ipFIPrp7twxWzgmLdZz5ngYss//3tgsJn0rAnmsH/bevCPQdUtPUpCJBJm3eW6KN2zYywB5surYcvwPvwFB/s7mgCu6184Al248+gzGUNWDJ4hD1tQMxBWVjmxKVTXbhoZiXmhqmGdb7VHR0HkV9hbwgVj+7pwR8OGnijJ0MVCOAls4y1Mcfn7ULipgvXzy/Bj3glT6n4NE0eNnH6oeOR3b248cUIdsU0BHntaIdFIC4gFqIMBR5oZD8zHnU/b1oYp9X6MTvkgDfgp1hW/AEMEs4TCX6t3PsxZB6IALE4dmfc2NDYhafaVGzqNRFJKsK/zUuP4ch5OfDViqYjaTpxXr0XPzq7CvOr7d3ebOIMhkkEeqMH/7s1huc7FGrhmCRIpvBDE6cpGIYhRuwzugHWOyGfC5NDHix0J3FKbQkWTqpEvZTCpFLeuoOk0DWaxSzyr6NQMAtf0SgENptAXJVwMJbGQc2LbV29eOVADDu0IJlfKfRmNPDGUx6yUB3scyeIZoGXAU4RWTz07GumluCmpSEsqefZsLbHAcMmzrDQ0NSj4K7tEfxxfwLbY6bYvMltaqSJHP2OlAzLYZOv4BVB2VnThI8ilHic8FPboDboRb3Wg4bKEKqdKqoDXrHKThmdD+hJ+Nwu0b7iddX4k3usZEODQ+XucROax5q+rRFh2d0/S0IttEAmi7Q3jO5ECm3RXkThRHufigOxFNqdYXT0ppCieAlFJ21pOZGyFnUID2me0TnwEGyWZin9LFUVHnqSU6s9uGKaGx88uR5lPvZhG6xNixs2cUYCLYsmEsg/7u7CXzuBVztTaErzRrYynJoiGs28jG4hmbhQuWi5dNnlkjUU78LGWwoy0XiLQ55uwO0p1mbCs5oEmT+Fz5qIYy1KaEiW8yVfxwLO3tXCw5mdOMl81Ck6e0uzaHNehJnFXtL8Scc4vYKsCZIzwflTkd0kBNTYD5ikLYN4T5WGC+fWooLdAqQi71E8AoqWOPzYeWHiAih0sDwyNChUgzfGFLH/58Z0CbZ3JYhYWXRmiRSUKk855i0FrVqdTaCBbQUZ/FlY6OI7/bN8mgtRmMMBCBqIPz6ejzMAPspvlZfN1enGPHWBfeQU1SCNBtS6dEwt8+GUah9ODyo4a0YNSMHA6WHDc4SapVBsRlx2bx/YGmcY4RseQ8QnrZMyZLRTW2JnTxrb2uI4gBDe6IqjO0uN7r4kYpJXrKDDE9GYUKxpHGQ28Y5vAkwEFkA6PyCHTJEBOuXfFB8RxHd5RBslr4n4GLdXAhRKZQ2VoQCqiCSzayswXevEooZKzK4sQTkpEg+3vQb1iok0R0yCfDnkP4sLRUucf3roNXQ5QqJ+TVO7YdPlU+jb6AXgyMKmwiSypJSsaKfwvjc9iobOpIpIPIWuWBx9JfVQSOh5FD5OjXVuu6g6GXSUZjJL7SluVxHB+CX5XE54yTwMUpvI56G2SKITFUSCiqAPlUGLJJVlQZT6fXAqCfi8rEY4b3mTq1DIxy7wbfEkznm8B5Vuaz2Cj5wk4zPLeVe64kHREufyx/dSm6WPGuZOUPMFt59TiauWnIiVW44ksHwuHxj5z3x8/syHkePI5B49Ln1kPx7f3wePUxaDoQ++ewo+MKe4HGSLtqvk84vCpA88opep3CvjE2u78bNN7XSGWtvHFYcLMAu2FfgXvRIzF8SMTAr9v0nzUJx8/JHi2JFGx8f/egCPNiZQQhpPjHO53fjAdNvJs2hwWkM53jvDj3iW+7kkMn+ATz7fiQse3ofdHb25WCcGLNj5kDtghTwKfh8W94TAwD8ao1hwz378emcstyubiWhaxx2rKsgSPH5bKk5UFHnngIZTfteO7Qe7SRi4+1VCltoa3Ni+cJILN66YhNPqiFFykS6LpCv4674Y/t/mGF5sS4uFGp3s5EnlE80YuJa09k/PY/O2+AZF7V41qjk/8Nh+PLw376dm1eRZnX2zDMwKe/Hhk9y4fEE1ppeR2fR298/SUtjRY+C3W1vxUIuJ/bGMWKTQcj+yyiSuy/jv5WW46YzimvVZCJs4ogFu4J5Xu/DFjX1oS6livolFIAm8zWFGl8CL9s2qCOD8KgPvml2LRWEZFWzfvdWnHRgZtMc1bI1k8diebvw9IqExmqAmlSPnimMRxtqJW8ayah9uP6sMSycX3xycQtjEKQCvnfbdV7rwo+19aEmZKJHZvUYWzXkeLuWNqFQSJNZGVV4Zk8v8OCNsYEW1G8smVaDOraE0QFppopp2ahI9ikTPZuClAxGsj2jY2OtAazyNqMJjQBLcVInwGFN+/EihZ07pDiyu8uBrS0twydwqOlq0TeN+2MQZAoau455t7bj9jQxe6mJ/MRYovZ9EDHZXYd8xdqXhhdk9kik2qeIxlZnONOZXBzDdo2LW5FpUOVSE/R4EjTQ8Pg8pKSbWsRY+ypCaRiaVQdzhR09KQYfmwK4DrdirePBabxaNKSe60wqiKQ0ajw/RwzhNHc5Bz8XTBzKkSUudJlZN8uMzC/xYNZ0XKSy+tsxwsIlzRKho6TPwwI4IHmlK49VIBj26Ez4iES9MXkgkLkQuSSaTQWYO+5CpdJb9wHh/m6DHBR/JndftRlmJF+VaH8o9TpR6KfjcCGb7SJB1sWSu0+GgeC7RScHge4ilpchsTCtZKKYDSXcIfZksetIaoskMet1l9F1Bmh0/DQlxRUWGu7CJ2C5eRJ3SolxZ3gq5NBlMFLGqp/D2Buo9BpZNKcfltSbeM7caZeyj0x/bRh42cUYMlWpqEy/u68BTHTpe6NLRFEujk0wfF68PrStikD7vpFkoanlSsfHDgsrOniBy8XEeNRKvgARXuHTS93zcQoHNf2PHTdH8IhLxXbhXWng586qh9Mnn8sc5Wh6cmnAQ5UAnVckNU1Mwye/A9LAXqytMXDA1hMV1IZSwx4GNI8ImzlhBROlVZezvzeDFXc3YppeSOWSgI5ZAtypRm4EEm8jh5ikIJKAs1BJRg+t78V38JgwS8NFAvDhBMgr0GllDiTWlKW3hvya7RS+Yg7RepVdCFam8uhIfTi4DlvoVrJhZj3o6FhDTBmwzbDQoWuLs7oiRrJCw0NNL1D6ZVZnbsvBNgUypRAJJZwnaepPYE01iX1sErb4aNHcn0a67kSBzKplRxGa9PC07o3EXLy+Czq+BKCTyNMwrYYZR+4Ph5oY8BZ7W7aX7+l0OlFD7idcGmOQ10VAWQIPWhTmTajA15EFV0IuQkYHDfwzWCCDttp3MVvYT5SkOZR4HakM8A7Z4ULTEWXbHy3gt7RXmVZKa/ubVk6iFf7y3HeeGTxYZIg7Pg1FllyANkymdVUlLGMjIZCZxA2kIMG+8ZDLyDgV+jxsBr1s4gDqzSXiJRB46Bid3jx/fXq+n93Ti/Me6iKQmklkDXz2lFN9cPTV3tjhQtMT52ottuHljJ0LUQGeP5OX1pXjm/WPzkC4mqLqGaXfvQzKdBU+17s7KWH9JJVZM5W7q4kHRdsh/eWmF2B+GzSKv04kXWvqw7OEDaO5N5WLYGIz1zb1o+HUj4ilFzHjlHsSZYVfRkYZRtMTxkJnz8Jp6dCuWp3HQLWN3ewLz7mvCp59uRE/cJpAFE01UmVzxlyac/UgrMum06PDg2aUJw4Gn3lObi1dcKPpetZ9ujeC6Zzv611PjNnqS2t9+2cR7pwdx/eJynFpBDXZ3cTV+oWawtjWN72/rxV+b0tCp/eWnBiEbsuxNwN3Zay+uEl7mxQi7O5rwXGM3Ln+qCz1pFUEWDpIOJhDPzMyaEmaVuvHeOgmXL67HwhL2on97kiidTGBrj457d/fiieYs9sYUsZUH994xYXgMqFcDllR68eiaOkwOH+/OlIkLmzg5qIqCz/6jE3ft6hNdwywwYmCRwEviKqYMlYpqWokTy2pKcH5ZCucumIY6OYNACQvQW83q1cRU7ea4jr/v6cTfIjK2daXQlDTgocd2F6wlx88f1yVUex344ill+NSySjrKYz/FC5s4g9AeS+G/X47i4b0JdClAoMDRk8HjFryZEq8/5jA11BPDppZ6sbxcxsklGpZMrUFtwI0yMw1XCY8NjTehdCiJhNiZuoXaKptbong16cLGzixakxQSpEIcTssXj4hCykWAHlE8Jy9CMjPkxLXzArh+SRVc7rf5tIoRwibOMEimM/j9ziju3K9iawcJnuaATybhIsHKz9lh8Ko1XCMbpJ3Yh0wyNFR4ZJS5ZVSVeHCSz8BJZV7UGTFMqa1GXYkb5T5egJAX4ZDgVuLwejwku6ziiGQcJPpu+QUUgO5pUuOLx3h0HZqmI5tVkXV6kZWcSCgqelIq2ogMB9o60SyXUaM+g0bVhWhfCj1ZE1HFgJwjCS//wUTJPwrfjU0xjTRrim5R6wFW1nnx8XkhXDCFNKq7+GZ5Hgk2cY4KHZ3xLJ7c040/tmSxJaKgJa7CJAF0wSCDxXKcLNQreSFkUjGhuIQ1Em7uvuVdEQLUjmLi5N34vW4nnEQc7uJ18UCmGMQc/Fp4aw1VmJGqRo1zXg1H00QbjJ0zU6ohPBHYB447OVykDdnSlKlR37+Vu5WQACUjpknokgwFDnhNFVNIc66sduH907w4a3IIIbEeto2hYBNnlFCScexLyXhubwfWRYFtfSa64hl0ZEySWRdpJKs2FwJLApyv0QuFNl/gXPLszCk+c6+B/w/3RpgI+XTyvm7W+gOHps8QSdA/5hJ3HfNqoOy/plDuHLqKGp+M2nAQy8tMrAwbWDWjFlO8xEBvcW7bMVrYxHmzyCYRycpoVWRs3ncQO9NevN6dQXPWiVgihTg1IWIZFZrsJBLJYjoCFXpO2C2hfzPgt8fkY1KYsktoEXbd8UkmgtSYD5F2KysJYJorjfmVXswnXiyZUoVqp07HSbMV8VYdbwY2cY4X9AySvA277EUsnUUzNRxa2rrQSYIaSUsUVESoTZJRqZYfK3nozQW9LlT5ndSe8qIiE0FVuBTTqstR55VQ4nUiZGbhDVCDxSbIMYVNHBs2xoC32uCDDRsTAjZxbNgYA2zi2LAxBtjEsWFjDLCJY8PGGGATx4aNMcAmjg0bY4BNHBs2xgCbODZsjAE2cU4AbOeMtx8miMsNZyHvsMX+vCN13jpSvHyaQz3eka7j+x8N+etHmk/Ow5stZr5X4f1Gms/8NYVlPBSOll6+jj0Wz8I4Up2dz2v+PiO534nVARODOKaK3REFf9/diiZHhdh1+Ujozmj45OJyLK4cbjsNA91JFWv3dWJrRxyKrxxVSgRnzZqE5bV+wDX02shJRcVNL/WixEEFM5yM0QlTyaDKiGHV7ElYWkPpOY7sQHnXa1Fs7TbAzshjgUZvaFbQgY8utBbG6E6r+NpL3Sh1yUfMJzIJ1EpprJ5dj4XVPpItzsDhFyRUA19ZHxHzhArm6AkouokKnxM3nlJGv2R86bkWOD1jX1uahY0n0H3tNJ5+PQxIHvb2ZPHM7nY0pU2Y/jAdG5rYnF53xsCnTw5idsWJmz807sTZG4njqme6sLY9A4fTCaeuWKUxDNIa8L2VZfj0iobckUHQVXzi2Q7cu7sPMU2Gj6dsaioMpweKqmJWyIFvn1GN980upciH11KvHOzBqQ8ehNc5fCYkWYZOZOEZmPPLPfjfFUFcOIvXFhtGijUFKx9uxob2pFh5c7TgBRPfNTWAx94/K3cE+Nu+KN75R8on79UxTFZ57WpddiKraVha6cOPzwxh5RTeruNwvLi/HSsf6YZXHqi0eDJeddCFvf86Cx6XtcaA69svimV0h3nSo8KgzJa5nej4+PzckUOxr6sPV6+N4LnWDCSeLCjRFVqWzgx9x4xq4ifn1OATp1TTr7HmavQYV+L8qTGFSx9thFfSxYzIAQxdALzZUcRww/z4JKrlD69dItEeLH2sBx29SQQ9A+sEFILnq8RUGdcsDOFn5/NWfIcL8vI7NmKPGhAzJ4dGrsjotKZReroTX1gSwq2reD/MoYnxVKuCCx/cgbB39O79Cmngi6b48dDFM3JHLEz50QYkXcEjiMvAq2Ut3me68e0V5bhh+dAkP+XX27E/KfVPDWdN9OVFAfzX6pPEb0bF9zYCvgBdPfxdjwQmTtjtwN6Pzs0dGcCfGuO47LFmeFgeDqlghr5Xvzx8gvN3YhcPGX31d4zwUks3LnnkAEqdBpGG59hz4eTDAFh2hfwWHuY5yYOhZzHnDxH0JpIICdLkL8qFXEK890wFWXg/396LTz/bylceBrENB2PgskHIHTRz6bkNfOeVbnxjfUfu/OFIkxAKFKbJYQQYLlp/lVeY5iHIH5Tgotq7wqnjxn904Jfbe6zTg8AaRtwsHwi8d85Ikc9Df15yaRRiiEMCG1sTuORPzQg6SB544XmOOUQih6U9TvX++BDHVHD+n6Moc2rC7BEFIWCKeflcO2oUeBG8kZbLZU+0I5XKwEOF3r+VucTz/g1KUycTmRJiuRCnJCKPjB9s6cXLB4++NTvngWtKldLh0J8eHetPzyfj6+u7sSeS4ANHBadJ6t563ly6wwUh0COAyCf9y1/HaecNinw+yymfH/97GyJDrVQ6gttwFK5YCvPHIT8FPA/+yvceHE/kyYpSABXn/qEJYZchFpQXeeVA1/O07/y1PLN1nFsW/RgX4vxyWwwJEnJrr8mBQk6TeT2z3I8ldSEsojCbvhe+/OHQ1d2L3+1NIyD237fS4/+8kn51wIMF1UHxQngFSk4qL0Qhl4nrnm0TsYcDp8XCGPY6cHJtCHMrSzCHAu9BQ1aayFs+vRJ68Z987sjpMazHsRbzWFhTItIcLiysCVL7wiF2NTgS+CwvXVXld2FhdQjzqkrEZr/MOSZe/rlZE/skDTe80GVdWAjxHEdGkh66OkhlSunn87iYyoW3G+Fc8H04L0yuAOV7Ua7MOPA1VX43tVM5xgB+8EqE2nFMGstOyF9PbX5MC/vEs8yn0FDqFWU2EcgzLm2c03+zHTvjvHsZFbYoKRN9KvDXd1XhnBncaOd2gIHtkSyW3LtHLLXEb51raGHTXlVPUQZWkbx1Qyu+uiGCIDU6+9NTyD4/vRZfX0bxnG7EUyrO+sNBNMYycPF9CcJGVl1Qr6yEMziwlOuyX27APr2k39ZPKiRop5TjG2fRfcGNZxMdPRlqTHcgmlTEHpoCdN+o5oR57RRqgx26nNKjB9K45A+7EPbRs3GJkzZU4ULs4wPth6EhIRpX8NG/tuBPl87JHbPQ8MMNSLmpjZMT+Djl84eravHxJdxjZeVzX0cSZzzSCVVTxZoHDNYOCpmZiWs5PTaLLCz+v1fRlJEH2jhU8XxhoQ/fOnegbXXKr17Cpo8toW+ioMUxbl9c+nQLnt4Zs8qCTmWyGi6fEcCd75pO5zUrGp8gS+LMBw9g3RWzc8eAU+/ejj2kqPPywNo8Rfn724XlOGt6GR3j9ouJFw/EcfYjbSgTnYM5edBdMK/jexRBG2dLjNoGuZfD4KWNblhaRqThnhHu6uRzMmL04kaCDa1xsd5Z/l1yLTsr7MLXV5AAObkTwYmg34fH3ltHBOVHtl64kF8SsK29eQEYDrwIIX/ytfzW3KgJh/DAuWH06SR49AL7n4a+74/whrtHh/V0/MI5zeECtU2CAfzqfO54ODL4KRTDKjvrWjem14Txq1VhxDWrcCytQ5UBlUOyj2qvUcHEM1ecTJ9WvgbyyNvaMx0PRf9mWf3x6BqHB09cMpXIMfBut5G1LOTByiKSZBl865QynDWjlo7xkIN1L96M62hv6kRhXIijZEi9EERNSYKWpWysqhv7Fue8mgybfQKUJm/fdxoPO4g3MYAGHqDRNWvbdWE7k+lGgdeMPjoOf2Wn1gXIZBuosQXooXgT22ONytJQ7tvosbLOJ9Z1OwRkWnWnuJt3NJBQ6h/5expOyIM+j2jbChgKNBf9tn4RuN0HnDnlWOyQd/wwLsRh9DfgcyiogEYNy9osKHr6LSq7waB7zKn2Y05VAHMr/CLMqvRT22iQUI0QPI4ziJsCDtErNHEgDCVRRhMTbHINBtVtExrjRpzBeFOvdbDwDiHMArIXO/9lGjZcPgUbPshhKnZ/eDLOmHaEUewcCizLfvz8tRjcpqWt+vNPXyaNSnkOl9ljh4lLmbcuJgxxBikggeMjUqxdCgPb3kcGN6r7qJETiyfRFO1DS1cPfrCpHV9Y34MSToIzT9LJAhp2G6isGtkOZbzAeV9fn0jzwBChMRJDeyyZi11cGEoeJhImBHG4jBwSix21/nSqwQ0rsLvFeBcg397ncuDu3QnU3H0As+9vwfQH2nDjui4E3daYUT6L3Kt13fyjt0XEM5kSHHoWNfccFGnOGRTEfX7bhCufbrcuKiJw+bAnEY/vwCRDkwPJhuhc5cMTABOCOFxrf/7FKFbetxenP7APp9+/D2c80Ihr/t6GgBgfGP/iclE2ShymCKVO+uQD/IZZ05CNzgN1AY8H3zrz6GYfgy+VSJMFZKM/3cIQ5E8qF+7PKC5Iwtn0+uc6sPqhA1j1UKMI5zy0H595IWpp+AmAcScO19jsE9Yc1/B6TxY7e1URdtD3fX1ZOOkcC9l4QtyfNAS/VA7c+Sw6N1hJkqbkXqBeTcJz762lEh2F57B4roF0BweRPIViAherkyqU3T0ZbOnKYGvECpvp+95eJScP418qE0LjcDnwqDEPnhUGBxXgBCijfnBe8oGFmsHeCSVksm25vAGL6kQf+Iggrhe9SUMHMSpC5/lXsYHLl7dO4Q29CgMfmyjyMCGII8BCNDhMELHhrLA7C5tkIls5ZFRq0yytRstVs4TbyUghkuC06EOjyiFLeoX3uRGfuaDSb5VeT3ZiFMGJBxf0UGGCYEIQhwVSIXOHd3suDBkejR7nwuK7845rp9X6kGFHKdY2uSxxb9uenjR9G2VDJHc9z+l57eIyvLAmTIE+LyoI9Hvju8P43gp2QSouCHmgsh4sDwqF8ZaHPMadOFwQ7Mx3+Ul+fHVJEF9aVCLCTYtLcOWckNht7JgWlpYhiVUGAv8+imbjiWSXTA9iVa3nkNmpbmrE/mlfEjs7YrkjowARkN1UJtXXYeFUCtPqDwuLTpqEGXUj62x4u0DIAxXxR+jdf4VkIC8PLBtXzPSLCnYikGdCaBxRUPPK8OUzp+C/zp4qwlfOmoKrF1XSuREMIQ8ux+HK1cxi6d07cN59O3Hufbso7MSye3Zh/f4hPIUPgYmOZBa/OI993Vi70A34HmRwhxwGPvZsp4g1Noy/EEw08Du/6uQK3HSWJQscWDY+Oj8s/NUmAiZMG4cdPQcjoY5QqESLcSAu/xxqpB+SgS0xBzb1FQYn4iNwJmW394ZwCVaS1mFfuDzcThkvtKt4tbU7d2TiQQzxDm5VT3C+JoeUhxFUoicIE6dz4E2gzO8Tk5zycMsObB7CemrtSpEUeYQnLm9Sy4tGcNdmODDy6cz/d14V4tqA1uF5OaVOHVc+czSt9eYQiY3Wk3kAL0dUOMUgYgFfyNwpG4XD5kTAUHXheOFtQZzlUyost/+cVDjoqV7tNfHNtY3WAejQlAwu+FscpVJu4YdcXFNyYlHZyEfVZleFcG6D7xCtw12lmyI6NjSOwmSj+1vzXthLgvJkUHtrmNCbzODf/nb0CXKcmlt4YBBJuP1Gz90RT+Ofn+pEkBcfYa2Te+4AmZjBkL1R7ljxtiDOldMkZCUeeCSp4D8SkHKXgW9tS2LeXTtx4cP7UP6rvWju5YlW7CZjXcfzRZaV6XCXjM5l/67zaxBXORFLCnlAtNSl499fGGEnQe7+sqFhzf278Q5qa73jPv48NJxH7bA1D76Bqb/eKzTk0eB3OfDTrRG8894ddP1OnPfAXky5+wCM3CQ2kQL9S6s63jeFtezb4vWPC94WJVdbVYk1U71IZQdajkweViQdaQ0bOzPCz8ktO61KV8g7zxIFfiJWuhkdpoT8WNPgFu0eBqfJsxd3tGfw7IGjk8cSYEls6f5it4lXeiUKOCxsouMvRi13HtchqwAdDk6TNdjBtIGNPXR9TMbmqCIWv5DJdBXPzREprZTpxvfP5EmDNsaKt02V8+d318Pr85IJReTJdVeyJuCa1kGCkxPXftJ0KwY+sSiEFaMYuCzEXedVI2EQMylB625EVJ+Eq/8+MqfMPHlYAzqdRw4s9CMBR+MJYvnrrHlBlDsmDX1wN26UrMIfr6pARdnxnyg2wmy/JTGhieMrNE9yZBAYymxxuLDnw1Ph9/lE74s1NZevOTTwqjfRrIl/mVOKn7yD1xA4HP2+UAW35I6EQlSHy3DZNDcyrHVE3kzhc7cnlsWf34hYkfphwpPPM0VlARZjESMK1mVDoZ9QFG/YNHPnedGT7qyEby4rxXVLhp720F+95K7l70dRdP3g4rGyk7snYUTXcpz+8h641lpXbeA3wzuUPIhDBcdPECYEcbgI8vX2ACR8e1MPdN1EQhsIUBT8ZAvZMUOg3O9B+0cm44OzQkjLLmqHGBRM0fffR58JTYLP7cK91Ea5+yJeCfTwToF9PUm8ooSE10KK7p2iexqSE3fujOdWlBzAHefVIKk5Rfr54HFKuOJvHdQ+L4wr4ZaXOunDYaVZEP/owcpDhp+9AJtaE2g2Q3SeTK8hr7NG23ndhiQ9d0XAhacursVXzxp6BdQ93SlsjkliTC1/Pd0av9pD9qzKHQ3Do0vR8fiOuFgARFxLedXpWR9qzCKRPvL6C7/eHoeRVkReC+/7na38jg8lxK1bY2RpDjwvX4OMgt/wyi8nGOOyyo102xZUBt25SoPMh7SJv7+/AedOHXAvufeVfVhLFXfINTDfJZ/RiGLiP+d6sfSkoTQGx5LQHY/jyaY0tkUySGezqAn6sLLGg9VTS6i6GLobti+RxPVP7kMo4KEadOClcYq8PFMQCm571wL6ZdU3j7zyBh4ljvi4qs5BxCUlVIoMbl2zkH5J+P7zu7GtzxRTJMZSN2p073mVXvznaVPE747uXnz22RaE/e5D8lkILls3mWv1Ia9Yz2F5A5ukAyZrIWL556aKJ7/CDcN6bnoWKUvPMo9+HV7Pqkoa1z65n+7lJNPw0HfF+WbPjJ++ewHVGQWFlMOWxjbcsiWGai+dK8gWXxsjq2B1pYSPnWEt+/vLdTvxQreMoHvgHgIUmduxXz61HIsbanIHjz/GjTgVRBx+uzz4+K8LynHHO0bfSLdhY7wwrqYaLzpX4fcSaYZua9iwMVExfsQhbdOjy/j1WTwId7j5YMPGRMa4EYcNxCqybS+Ye/SF9mzYmGgYN+KkVA3/MvPQZWJt2HirYHyIQ9omKzlx8UljG3y08VaG1c3/Vsc4aRwThsOLec6+3O+hsXZbHNW/bYf0/RZIP2iB455O3Nyo5s4ef0QiGcy9N4r8LjqXPNAK6eYD+PHg8c0RQ4fvtmZIt7VjNJMQZv+Mr2nDa7nfb1noKqRbWvCZvSN4h5GUKGvpgaHH7MYb46Zx2GeqtmL4xS02vd6L1c/H0ZWV8MP3VOKH55TAiKm46XddePrQccjjBB3TfxPBrh4deb34xZVhfO99lXj3mBWlhLqAg12Thxh6HR5Vfuuagf0U3ppojuj4zZWT8IvZI5jGEXKLsr5z5Ynb13M0GJdxnJNu347GjBvmf9QDnqFd2y+4tw1PJUzceFENbpliDZ691pxBQ7UXIbECk4lPPhLBj1p4ZJt+upz42ppKfP0kJ865uxnP9XqwZoGJv7xoIP6VOnz90S58t/nwuLN/2ow3vD58eTZw82sqnCVOdH+4Cl95vB0/5FkCLOF0j+dvnIr7HmvHT/druPMjk/Hv4eHvfyhMrHmwA0+0qJhxeimqdiaxXnEidW0VpO4M5vy1F03tGnugYsGMAF64sLSfqHmc+etWvKC78c8zeGA4AzT40HpZBeok4BcbenHNyynKgwF/rRf3vLMC7yuXhnyuRnquSaqKuQ91Y1evDrGuVbkfrf9SjsFdNENdv/+fqzCZ7nnb81F8YRs/N11f6ca3V5XjhilOrN0dw+q/xak6duIby7z42j/iWL26Gs8u81j53Jyma3T4qzif5ZRPGQkqgwX5MnDKmDsvgB3vKAV60pDujgLTgjDfS7+TGhY8GsXr7VTYVFbnnBzCM2eT7GTpeR4++vMca4yLxrl1FRFGMdHTO5yrhI7Xui0+Lw8zaQxc+1wvftah4vObYvgdnWvfF8eP2lQsmluKpy4JQ3YZ+MZzlmdyJQ/lB3TsTflw20croDfG8d3WoeNWswYwsnjG7cM7Jjmg9WXx1QMGvnpmCCU8A1WR8T8fqMIKKimHk6SGXlrABXQe4f6FePzlHjwRNTBzYSk+7dCwPnecu0WWPRhBU8aBn/5TFW5e7MVrexJ478vDuLeYKvb7fLhmIdUaZEJ+dFsW8aY4rnkpidIpXty3JowU5f39D1l2pNBsg57re80GHt/ch13dGr57SQ3Mf63BbSTUu2MkcINQNcT1/0vXN78Rwxe2ZrB0fgiPEnlP0jTc+IhleL7vqQSVjwvfXlOKu3cRmYMO1PnkgXxO8uC+d+bzSaQgnEb5baL7f+7CCnyLymDna3FcRM8mlvKksnZymROW3d+J12M6blxTgcsbXHh2Wwwf2KHiia0je55jjXEhzgfmlCFQYmJnejiVLSOcW9evU5jDBn6+NYmfbEvg9s0J/JlUfu30EDafU4ZzggY+9VICBq+syQ5MBKYar6v0y4tC+Fy9G6VUax0e1ypcEVd14qnTAvgWvRA2p/b3aKgs86GaG7GqhC/P9Ivpx3l3MZUqx+ph7j94d81/xKyZl9ctC+H6FWHUU4UhPCJJTb3OxS/r+MTfu/HlN7JwkqBtjgxjh2YdeJry+DPeKIvzGNfw8EEimUPCDcvD+NCcAP5N7CeVxWb64OwMfq59vRrevZhqabrmc3+ktuNvO/H5rSn0iMUWh8Cg66NUZve2Uv7IdNx8II6L/9KLAy4qQb+Oje1ZdLMTZtCNG6b5cM8SMrHo0dkx8z7W9IPzSRXBzqiGHSZltNSP2+b58JWzy2F+cjKeWERykZ82L1yKNGzK0G+Kd8scHx5YSWVAZfhCWxYXLQmO/HmOIbh4xwEynr54Mn6zfzgHQAlXzaKXRWV1o5gc5qQCnYRbZ1pE85NU/H5jFEuf7ME2pxfb3x+Gkx3EBvltSbmK5451kSHiWucsmKKxLuX8tIRjLh1TDMqAZCI/rzN/SQll4/71Q6UpHdZ2qeUak/42dVENkM6gldMW1jEJnBAOF8yr6tB8YRk+u8CP208ZxqaXdDxAls4OTofyVEJmTb3Hen1PHbTKcT33tegOzOQPTnrQc4nJoR4PzGvrsYO06L3nkND1ZPHh9cPtW3ro9Xz5Il6TVzFw3RmVMK+uw3fm+XH9yaU4rZbywjVLwqoofi/IYuVjsneofMqYXkHHOUJCsTpgEhl8cG0vbtxN5MxpGgv0nW9O8VhPPU9mLx+Y5KfrXWTyj/h5jh2sJxoHrJhUggXe4Vv5nzmnAgtCpOZbkqJHjcMNr9PLIKm9siG3UJ9LwrMvRiDd2YMy9tvktYMIYlEH+p77aTkuDhNXLNRBWoBfd5ZfPB1PCtUiY0UVFY+koeaWZrxKR/Tceb50uDQtsRnAp5bRyyTh+M1THZAeTGAmx8twPBkPLie1mlQg/bAFDb+L4tbNGayqFDrwEMT5hl4nbnrwIOazOURCd9PJXlx4SikaSHie2dAt0thFcjl/eRl4pk2Urxn0XAbl+YlXopBubcbKDSlsJBOHyXs91eKDMVS5dFG+1ywrFWtn/+TpTnHPz62LYauoaZykDaja0FR6VwfxBGkrlnfeDvFdy8oOzyel46YyuJdMK2g6JtFx6c4oHtyUwpI6qpmYUFyenA9i4DOrSctQ+6iS4q1ax/seunD/6T48tIHKfwTPc6wxLp0DA+A5JJSJYTx8Gdvb03iyx6Cio8Zz2IULagfq9Md3pbGNKp9PL/Th5X1JPJcklX2yH2v3JPEy1c5Xzg+AzPNh436e4v5lZwKvqzI+Rd8TUQW/orbQ0jof3sUCnNVwy24SbCLIp+f4sfFACmv7DFw2uwRz6H0PleYnKJ3BvV+ZvgxubdRxzaIAXt6VxKasjBtO9omdTsXzdRukKGS6h3VsMB7ekcAu2YWbSDD/e1saZ08LYHVooMzup3y06AbOrPHhDK7FCeIabejn2t6u4NGIKry43znJ339NIY50PZvOt+9Oc3sdNTUeXFEx8E7+SGVfWh5A044ortyWwYdWVeO+BWzqDZ1PRiOl/3AHJUZm22VUBtM4OUXD/+zOoIxMv+umWaXSHc3idmrnVlBZXVVAjpE8z7HGOBPHxtsJDT9uQkt+a0du78gONP1HDYaeAfTWhk0cG8cQOn6xK4u0QeasLONq0gpv9bGn4WATx4aNMeD4G4M2bLwNYRPHho0xwCaODRtjgE0cGzbGAJs4NmyMATZxbNgYA2zi2LAxBtjEsWFjDLCJY8PGGGATx4aNMcAmjg0bY4BNHBs2xgCbODZsjAE2cWzYGANs4tiwMQbYxLFhY9QA/j/FNnbG3NPrbwAAAABJRU5ErkJggg==;" vertex="1" parent="1">
                    <mxGeometry x="734.39" y="20" width="65.61" height="50" as="geometry"/>
                </mxCell>
            </root>
        </mxGraphModel>
    </diagram>
</mxfile>